<mxfile host="Electron" modified="2024-04-12T06:55:30.013Z" agent="Mozilla/5.0 (Macintosh; Intel Mac OS X 10_15_7) AppleWebKit/537.36 (KHTML, like Gecko) draw.io/24.0.4 Chrome/120.0.6099.109 Electron/28.1.0 Safari/537.36" etag="BdHTqIzX3lxDgS6apkBX" version="24.0.4" type="device" pages="2">
  <diagram name="BATD架构标准" id="3vBorBV8pjvWqBJqD5R_">
    <mxGraphModel dx="1030" dy="564" grid="0" gridSize="10" guides="1" tooltips="1" connect="1" arrows="1" fold="1" page="1" pageScale="1" pageWidth="827" pageHeight="1169" math="0" shadow="0">
      <root>
        <mxCell id="0" />
        <mxCell id="1" parent="0" />
        <mxCell id="x9NXBi1BhdLSh1Hj1zMe-5" style="edgeStyle=orthogonalEdgeStyle;rounded=0;orthogonalLoop=1;jettySize=auto;html=1;exitX=0.5;exitY=1;exitDx=0;exitDy=0;entryX=0.5;entryY=0;entryDx=0;entryDy=0;" edge="1" parent="1" source="x9NXBi1BhdLSh1Hj1zMe-1" target="x9NXBi1BhdLSh1Hj1zMe-2">
          <mxGeometry relative="1" as="geometry" />
        </mxCell>
        <mxCell id="x9NXBi1BhdLSh1Hj1zMe-1" value="业务架构" style="rounded=1;whiteSpace=wrap;html=1;fillColor=#ffe6cc;strokeColor=#d79b00;" vertex="1" parent="1">
          <mxGeometry x="312" y="78" width="120" height="60" as="geometry" />
        </mxCell>
        <mxCell id="x9NXBi1BhdLSh1Hj1zMe-6" style="edgeStyle=orthogonalEdgeStyle;rounded=0;orthogonalLoop=1;jettySize=auto;html=1;exitX=1;exitY=0.5;exitDx=0;exitDy=0;" edge="1" parent="1" source="x9NXBi1BhdLSh1Hj1zMe-2" target="x9NXBi1BhdLSh1Hj1zMe-4">
          <mxGeometry relative="1" as="geometry" />
        </mxCell>
        <mxCell id="x9NXBi1BhdLSh1Hj1zMe-7" style="edgeStyle=orthogonalEdgeStyle;rounded=0;orthogonalLoop=1;jettySize=auto;html=1;exitX=0;exitY=0.5;exitDx=0;exitDy=0;entryX=1;entryY=0.5;entryDx=0;entryDy=0;" edge="1" parent="1" source="x9NXBi1BhdLSh1Hj1zMe-2" target="x9NXBi1BhdLSh1Hj1zMe-3">
          <mxGeometry relative="1" as="geometry" />
        </mxCell>
        <mxCell id="x9NXBi1BhdLSh1Hj1zMe-2" value="应用架构" style="rounded=1;whiteSpace=wrap;html=1;fillColor=#fff2cc;strokeColor=#d6b656;" vertex="1" parent="1">
          <mxGeometry x="312" y="227" width="120" height="60" as="geometry" />
        </mxCell>
        <mxCell id="x9NXBi1BhdLSh1Hj1zMe-3" value="数据架构" style="rounded=1;whiteSpace=wrap;html=1;fillColor=#dae8fc;strokeColor=#6c8ebf;" vertex="1" parent="1">
          <mxGeometry x="98" y="227" width="120" height="60" as="geometry" />
        </mxCell>
        <mxCell id="x9NXBi1BhdLSh1Hj1zMe-4" value="技术架构" style="rounded=1;whiteSpace=wrap;html=1;fillColor=#e1d5e7;strokeColor=#9673a6;" vertex="1" parent="1">
          <mxGeometry x="526" y="227" width="120" height="60" as="geometry" />
        </mxCell>
        <mxCell id="x9NXBi1BhdLSh1Hj1zMe-8" value="" style="shape=callout;whiteSpace=wrap;html=1;perimeter=calloutPerimeter;rounded=1;direction=west;" vertex="1" parent="1">
          <mxGeometry x="63" y="314" width="178" height="97" as="geometry" />
        </mxCell>
      </root>
    </mxGraphModel>
  </diagram>
  <diagram id="8a3N1h_bc0h0s-Ex9IgP" name="B 业务架构图">
    <mxGraphModel dx="1177" dy="645" grid="0" gridSize="10" guides="1" tooltips="1" connect="1" arrows="1" fold="1" page="1" pageScale="1" pageWidth="827" pageHeight="1169" math="0" shadow="0">
      <root>
        <mxCell id="0" />
        <mxCell id="1" parent="0" />
        <mxCell id="tYGH4hpRMXdYx0P0cHHM-28" value="" style="group" vertex="1" connectable="0" parent="1">
          <mxGeometry x="55" y="32" width="724" height="578" as="geometry" />
        </mxCell>
        <mxCell id="tYGH4hpRMXdYx0P0cHHM-2" value="业务架构图" style="rounded=0;whiteSpace=wrap;html=1;dashed=1;strokeWidth=1;strokeColor=#000000;fillColor=none;verticalAlign=top;fontSize=16;fontStyle=0" vertex="1" parent="tYGH4hpRMXdYx0P0cHHM-28">
          <mxGeometry width="724" height="578" as="geometry" />
        </mxCell>
        <mxCell id="tYGH4hpRMXdYx0P0cHHM-1" value="公共能力层" style="rounded=0;whiteSpace=wrap;html=1;fillColor=#e1d5e7;strokeColor=#9673a6;" vertex="1" parent="tYGH4hpRMXdYx0P0cHHM-28">
          <mxGeometry x="21" y="395" width="86" height="60" as="geometry" />
        </mxCell>
        <mxCell id="tYGH4hpRMXdYx0P0cHHM-3" value="业务应用层" style="rounded=0;whiteSpace=wrap;html=1;fillColor=#dae8fc;strokeColor=#6c8ebf;" vertex="1" parent="tYGH4hpRMXdYx0P0cHHM-28">
          <mxGeometry x="21" y="147" width="86" height="210" as="geometry" />
        </mxCell>
        <mxCell id="tYGH4hpRMXdYx0P0cHHM-4" value="用户展示层" style="rounded=0;whiteSpace=wrap;html=1;fillColor=#d5e8d4;strokeColor=#82b366;" vertex="1" parent="tYGH4hpRMXdYx0P0cHHM-28">
          <mxGeometry x="21" y="49" width="86" height="60" as="geometry" />
        </mxCell>
        <mxCell id="tYGH4hpRMXdYx0P0cHHM-5" value="基础设施层" style="rounded=0;whiteSpace=wrap;html=1;fillColor=#f8cecc;strokeColor=#b85450;" vertex="1" parent="tYGH4hpRMXdYx0P0cHHM-28">
          <mxGeometry x="21" y="491.5" width="86" height="60" as="geometry" />
        </mxCell>
        <mxCell id="tYGH4hpRMXdYx0P0cHHM-6" value="" style="rounded=0;whiteSpace=wrap;html=1;fillColor=#f8cecc;strokeColor=#b85450;" vertex="1" parent="tYGH4hpRMXdYx0P0cHHM-28">
          <mxGeometry x="125" y="492" width="466" height="60" as="geometry" />
        </mxCell>
        <mxCell id="tYGH4hpRMXdYx0P0cHHM-8" value="PaaS" style="rounded=0;whiteSpace=wrap;html=1;fillColor=#f5f5f5;strokeColor=#666666;fontColor=#333333;" vertex="1" parent="tYGH4hpRMXdYx0P0cHHM-28">
          <mxGeometry x="618" y="147.5" width="86" height="307.5" as="geometry" />
        </mxCell>
        <mxCell id="tYGH4hpRMXdYx0P0cHHM-9" value="SaaS" style="rounded=0;whiteSpace=wrap;html=1;fillColor=#f5f5f5;strokeColor=#666666;fontColor=#333333;" vertex="1" parent="tYGH4hpRMXdYx0P0cHHM-28">
          <mxGeometry x="618" y="49.5" width="86" height="60" as="geometry" />
        </mxCell>
        <mxCell id="tYGH4hpRMXdYx0P0cHHM-10" value="IaaS" style="rounded=0;whiteSpace=wrap;html=1;fillColor=#f5f5f5;strokeColor=#666666;fontColor=#333333;" vertex="1" parent="tYGH4hpRMXdYx0P0cHHM-28">
          <mxGeometry x="618" y="492" width="86" height="60" as="geometry" />
        </mxCell>
        <mxCell id="tYGH4hpRMXdYx0P0cHHM-11" value="" style="rounded=0;whiteSpace=wrap;html=1;fillColor=#dae8fc;strokeColor=#6c8ebf;" vertex="1" parent="tYGH4hpRMXdYx0P0cHHM-28">
          <mxGeometry x="126" y="147" width="464" height="210" as="geometry" />
        </mxCell>
        <mxCell id="tYGH4hpRMXdYx0P0cHHM-12" value="" style="rounded=0;whiteSpace=wrap;html=1;fillColor=#d5e8d4;strokeColor=#82b366;" vertex="1" parent="tYGH4hpRMXdYx0P0cHHM-28">
          <mxGeometry x="125" y="49" width="466" height="60" as="geometry" />
        </mxCell>
        <mxCell id="tYGH4hpRMXdYx0P0cHHM-13" value="数据库" style="rounded=1;whiteSpace=wrap;html=1;" vertex="1" parent="tYGH4hpRMXdYx0P0cHHM-28">
          <mxGeometry x="146" y="504" width="88" height="36" as="geometry" />
        </mxCell>
        <mxCell id="tYGH4hpRMXdYx0P0cHHM-14" value="网络" style="rounded=1;whiteSpace=wrap;html=1;" vertex="1" parent="tYGH4hpRMXdYx0P0cHHM-28">
          <mxGeometry x="258" y="504" width="88" height="36" as="geometry" />
        </mxCell>
        <mxCell id="tYGH4hpRMXdYx0P0cHHM-15" value="域名" style="rounded=1;whiteSpace=wrap;html=1;" vertex="1" parent="tYGH4hpRMXdYx0P0cHHM-28">
          <mxGeometry x="371" y="504" width="88" height="36" as="geometry" />
        </mxCell>
        <mxCell id="tYGH4hpRMXdYx0P0cHHM-16" value="OSS" style="rounded=1;whiteSpace=wrap;html=1;" vertex="1" parent="tYGH4hpRMXdYx0P0cHHM-28">
          <mxGeometry x="483" y="504" width="88" height="36" as="geometry" />
        </mxCell>
        <mxCell id="tYGH4hpRMXdYx0P0cHHM-17" value="" style="rounded=0;whiteSpace=wrap;html=1;fillColor=#e1d5e7;strokeColor=#9673a6;" vertex="1" parent="tYGH4hpRMXdYx0P0cHHM-28">
          <mxGeometry x="125" y="394" width="464" height="61" as="geometry" />
        </mxCell>
        <mxCell id="tYGH4hpRMXdYx0P0cHHM-18" value="消息服务" style="rounded=0;whiteSpace=wrap;html=1;" vertex="1" parent="tYGH4hpRMXdYx0P0cHHM-28">
          <mxGeometry x="146" y="408" width="80" height="33" as="geometry" />
        </mxCell>
        <mxCell id="tYGH4hpRMXdYx0P0cHHM-19" value="OpenAPI" style="rounded=0;whiteSpace=wrap;html=1;" vertex="1" parent="tYGH4hpRMXdYx0P0cHHM-28">
          <mxGeometry x="261" y="408" width="80" height="33" as="geometry" />
        </mxCell>
        <mxCell id="tYGH4hpRMXdYx0P0cHHM-20" value="日志服务" style="rounded=0;whiteSpace=wrap;html=1;" vertex="1" parent="tYGH4hpRMXdYx0P0cHHM-28">
          <mxGeometry x="376" y="408" width="80" height="33" as="geometry" />
        </mxCell>
        <mxCell id="tYGH4hpRMXdYx0P0cHHM-21" value="监控服务" style="rounded=0;whiteSpace=wrap;html=1;" vertex="1" parent="tYGH4hpRMXdYx0P0cHHM-28">
          <mxGeometry x="491" y="408" width="80" height="33" as="geometry" />
        </mxCell>
        <mxCell id="tYGH4hpRMXdYx0P0cHHM-22" value="APP" style="rounded=0;whiteSpace=wrap;html=1;" vertex="1" parent="tYGH4hpRMXdYx0P0cHHM-28">
          <mxGeometry x="184" y="62.5" width="80" height="33" as="geometry" />
        </mxCell>
        <mxCell id="tYGH4hpRMXdYx0P0cHHM-23" value="Web" style="rounded=0;whiteSpace=wrap;html=1;" vertex="1" parent="tYGH4hpRMXdYx0P0cHHM-28">
          <mxGeometry x="316" y="62.5" width="80" height="33" as="geometry" />
        </mxCell>
        <mxCell id="tYGH4hpRMXdYx0P0cHHM-24" value="Applet" style="rounded=0;whiteSpace=wrap;html=1;" vertex="1" parent="tYGH4hpRMXdYx0P0cHHM-28">
          <mxGeometry x="447" y="62.5" width="80" height="33" as="geometry" />
        </mxCell>
        <mxCell id="tYGH4hpRMXdYx0P0cHHM-25" value="认证中心" style="rounded=0;whiteSpace=wrap;html=1;fillColor=#fff2cc;strokeColor=#d6b656;" vertex="1" parent="tYGH4hpRMXdYx0P0cHHM-28">
          <mxGeometry x="150" y="174" width="120" height="160" as="geometry" />
        </mxCell>
        <mxCell id="tYGH4hpRMXdYx0P0cHHM-26" value="订单中心" style="rounded=0;whiteSpace=wrap;html=1;fillColor=#fff2cc;strokeColor=#d6b656;" vertex="1" parent="tYGH4hpRMXdYx0P0cHHM-28">
          <mxGeometry x="295" y="174" width="120" height="160" as="geometry" />
        </mxCell>
        <mxCell id="tYGH4hpRMXdYx0P0cHHM-27" value="会员中心" style="rounded=0;whiteSpace=wrap;html=1;fillColor=#fff2cc;strokeColor=#d6b656;" vertex="1" parent="tYGH4hpRMXdYx0P0cHHM-28">
          <mxGeometry x="440" y="174" width="120" height="160" as="geometry" />
        </mxCell>
      </root>
    </mxGraphModel>
  </diagram>
</mxfile>
